<mxfile host="app.diagrams.net" modified="2021-08-18T19:05:10.568Z" agent="5.0 (Windows NT 10.0; Win64; x64) AppleWebKit/537.36 (KHTML, like Gecko) Chrome/92.0.4515.131 Safari/537.36" etag="QOAbyCNA7kFZ1zZtm0nO" version="14.8.3" type="github">
  <diagram id="R2lEEEUBdFMjLlhIrx00" name="Page-1">
    <mxGraphModel dx="1038" dy="547" grid="0" gridSize="10" guides="1" tooltips="1" connect="1" arrows="1" fold="1" page="1" pageScale="1" pageWidth="850" pageHeight="1100" math="0" shadow="0" extFonts="Permanent Marker^https://fonts.googleapis.com/css?family=Permanent+Marker">
      <root>
        <mxCell id="0" />
        <mxCell id="1" parent="0" />
        <mxCell id="CHl3-RWUKFbQDCaINI2_-43" value="salaries" style="shape=table;startSize=30;container=1;collapsible=1;childLayout=tableLayout;fixedRows=1;rowLines=0;fontStyle=1;align=center;resizeLast=1;" vertex="1" parent="1">
          <mxGeometry x="492" y="240" width="320" height="160" as="geometry" />
        </mxCell>
        <mxCell id="CHl3-RWUKFbQDCaINI2_-44" value="" style="shape=partialRectangle;collapsible=0;dropTarget=0;pointerEvents=0;fillColor=none;top=0;left=0;bottom=0;right=0;points=[[0,0.5],[1,0.5]];portConstraint=eastwest;" vertex="1" parent="CHl3-RWUKFbQDCaINI2_-43">
          <mxGeometry y="30" width="320" height="30" as="geometry" />
        </mxCell>
        <mxCell id="CHl3-RWUKFbQDCaINI2_-45" value="PK1,FK" style="shape=partialRectangle;connectable=0;fillColor=none;top=0;left=0;bottom=0;right=0;fontStyle=1;overflow=hidden;" vertex="1" parent="CHl3-RWUKFbQDCaINI2_-44">
          <mxGeometry width="60" height="30" as="geometry" />
        </mxCell>
        <mxCell id="CHl3-RWUKFbQDCaINI2_-46" value="emp_no INT NOT NULL" style="shape=partialRectangle;connectable=0;fillColor=none;top=0;left=0;bottom=0;right=0;align=left;spacingLeft=6;fontStyle=7;overflow=hidden;" vertex="1" parent="CHl3-RWUKFbQDCaINI2_-44">
          <mxGeometry x="60" width="260" height="30" as="geometry" />
        </mxCell>
        <mxCell id="CHl3-RWUKFbQDCaINI2_-47" value="" style="shape=partialRectangle;collapsible=0;dropTarget=0;pointerEvents=0;fillColor=none;top=0;left=0;bottom=1;right=0;points=[[0,0.5],[1,0.5]];portConstraint=eastwest;" vertex="1" parent="CHl3-RWUKFbQDCaINI2_-43">
          <mxGeometry y="60" width="320" height="30" as="geometry" />
        </mxCell>
        <mxCell id="CHl3-RWUKFbQDCaINI2_-48" value="PK2" style="shape=partialRectangle;connectable=0;fillColor=none;top=0;left=0;bottom=0;right=0;fontStyle=1;overflow=hidden;" vertex="1" parent="CHl3-RWUKFbQDCaINI2_-47">
          <mxGeometry width="60" height="30" as="geometry" />
        </mxCell>
        <mxCell id="CHl3-RWUKFbQDCaINI2_-49" value="from_timestamp TIMESTAMP NOT NULL" style="shape=partialRectangle;connectable=0;fillColor=none;top=0;left=0;bottom=0;right=0;align=left;spacingLeft=6;fontStyle=5;overflow=hidden;" vertex="1" parent="CHl3-RWUKFbQDCaINI2_-47">
          <mxGeometry x="60" width="260" height="30" as="geometry" />
        </mxCell>
        <mxCell id="CHl3-RWUKFbQDCaINI2_-50" value="" style="shape=partialRectangle;collapsible=0;dropTarget=0;pointerEvents=0;fillColor=none;top=0;left=0;bottom=0;right=0;points=[[0,0.5],[1,0.5]];portConstraint=eastwest;" vertex="1" parent="CHl3-RWUKFbQDCaINI2_-43">
          <mxGeometry y="90" width="320" height="30" as="geometry" />
        </mxCell>
        <mxCell id="CHl3-RWUKFbQDCaINI2_-51" value="" style="shape=partialRectangle;connectable=0;fillColor=none;top=0;left=0;bottom=0;right=0;editable=1;overflow=hidden;" vertex="1" parent="CHl3-RWUKFbQDCaINI2_-50">
          <mxGeometry width="60" height="30" as="geometry" />
        </mxCell>
        <mxCell id="CHl3-RWUKFbQDCaINI2_-52" value="salary DECIMAL(8,2) NOT NULL" style="shape=partialRectangle;connectable=0;fillColor=none;top=0;left=0;bottom=0;right=0;align=left;spacingLeft=6;overflow=hidden;" vertex="1" parent="CHl3-RWUKFbQDCaINI2_-50">
          <mxGeometry x="60" width="260" height="30" as="geometry" />
        </mxCell>
        <mxCell id="CHl3-RWUKFbQDCaINI2_-53" value="" style="shape=partialRectangle;collapsible=0;dropTarget=0;pointerEvents=0;fillColor=none;top=0;left=0;bottom=0;right=0;points=[[0,0.5],[1,0.5]];portConstraint=eastwest;" vertex="1" parent="CHl3-RWUKFbQDCaINI2_-43">
          <mxGeometry y="120" width="320" height="30" as="geometry" />
        </mxCell>
        <mxCell id="CHl3-RWUKFbQDCaINI2_-54" value="" style="shape=partialRectangle;connectable=0;fillColor=none;top=0;left=0;bottom=0;right=0;editable=1;overflow=hidden;" vertex="1" parent="CHl3-RWUKFbQDCaINI2_-53">
          <mxGeometry width="60" height="30" as="geometry" />
        </mxCell>
        <mxCell id="CHl3-RWUKFbQDCaINI2_-55" value="to_timestamp TIMESTAMP NOT NULL" style="shape=partialRectangle;connectable=0;fillColor=none;top=0;left=0;bottom=0;right=0;align=left;spacingLeft=6;overflow=hidden;" vertex="1" parent="CHl3-RWUKFbQDCaINI2_-53">
          <mxGeometry x="60" width="260" height="30" as="geometry" />
        </mxCell>
        <mxCell id="CHl3-RWUKFbQDCaINI2_-121" value="employees" style="shape=table;startSize=30;container=1;collapsible=1;childLayout=tableLayout;fixedRows=1;rowLines=0;fontStyle=1;align=center;resizeLast=1;" vertex="1" parent="1">
          <mxGeometry x="50" y="210" width="270" height="220" as="geometry" />
        </mxCell>
        <mxCell id="CHl3-RWUKFbQDCaINI2_-122" value="" style="shape=partialRectangle;collapsible=0;dropTarget=0;pointerEvents=0;fillColor=none;points=[[0,0.5],[1,0.5]];portConstraint=eastwest;top=0;left=0;right=0;bottom=1;" vertex="1" parent="CHl3-RWUKFbQDCaINI2_-121">
          <mxGeometry y="30" width="270" height="30" as="geometry" />
        </mxCell>
        <mxCell id="CHl3-RWUKFbQDCaINI2_-123" value="PK" style="shape=partialRectangle;overflow=hidden;connectable=0;fillColor=none;top=0;left=0;bottom=0;right=0;fontStyle=1;" vertex="1" parent="CHl3-RWUKFbQDCaINI2_-122">
          <mxGeometry width="30" height="30" as="geometry" />
        </mxCell>
        <mxCell id="CHl3-RWUKFbQDCaINI2_-124" value="emp_no INT NOT NULL    " style="shape=partialRectangle;overflow=hidden;connectable=0;fillColor=none;top=0;left=0;bottom=0;right=0;align=left;spacingLeft=6;fontStyle=5;" vertex="1" parent="CHl3-RWUKFbQDCaINI2_-122">
          <mxGeometry x="30" width="240" height="30" as="geometry" />
        </mxCell>
        <mxCell id="CHl3-RWUKFbQDCaINI2_-125" value="" style="shape=partialRectangle;collapsible=0;dropTarget=0;pointerEvents=0;fillColor=none;points=[[0,0.5],[1,0.5]];portConstraint=eastwest;top=0;left=0;right=0;bottom=0;" vertex="1" parent="CHl3-RWUKFbQDCaINI2_-121">
          <mxGeometry y="60" width="270" height="30" as="geometry" />
        </mxCell>
        <mxCell id="CHl3-RWUKFbQDCaINI2_-126" value="" style="shape=partialRectangle;overflow=hidden;connectable=0;fillColor=none;top=0;left=0;bottom=0;right=0;" vertex="1" parent="CHl3-RWUKFbQDCaINI2_-125">
          <mxGeometry width="30" height="30" as="geometry" />
        </mxCell>
        <mxCell id="CHl3-RWUKFbQDCaINI2_-127" value="birth_date  DATE            NOT NULL" style="shape=partialRectangle;overflow=hidden;connectable=0;fillColor=none;top=0;left=0;bottom=0;right=0;align=left;spacingLeft=6;" vertex="1" parent="CHl3-RWUKFbQDCaINI2_-125">
          <mxGeometry x="30" width="240" height="30" as="geometry" />
        </mxCell>
        <mxCell id="CHl3-RWUKFbQDCaINI2_-128" value="" style="shape=partialRectangle;collapsible=0;dropTarget=0;pointerEvents=0;fillColor=none;points=[[0,0.5],[1,0.5]];portConstraint=eastwest;top=0;left=0;right=0;bottom=0;" vertex="1" parent="CHl3-RWUKFbQDCaINI2_-121">
          <mxGeometry y="90" width="270" height="30" as="geometry" />
        </mxCell>
        <mxCell id="CHl3-RWUKFbQDCaINI2_-129" value="" style="shape=partialRectangle;overflow=hidden;connectable=0;fillColor=none;top=0;left=0;bottom=0;right=0;" vertex="1" parent="CHl3-RWUKFbQDCaINI2_-128">
          <mxGeometry width="30" height="30" as="geometry" />
        </mxCell>
        <mxCell id="CHl3-RWUKFbQDCaINI2_-130" value="full_name	VARCHAR(20)     NOT NULL" style="shape=partialRectangle;overflow=hidden;connectable=0;fillColor=none;top=0;left=0;bottom=0;right=0;align=left;spacingLeft=6;" vertex="1" parent="CHl3-RWUKFbQDCaINI2_-128">
          <mxGeometry x="30" width="240" height="30" as="geometry" />
        </mxCell>
        <mxCell id="CHl3-RWUKFbQDCaINI2_-131" value="" style="shape=partialRectangle;collapsible=0;dropTarget=0;pointerEvents=0;fillColor=none;points=[[0,0.5],[1,0.5]];portConstraint=eastwest;top=0;left=0;right=0;bottom=0;" vertex="1" parent="CHl3-RWUKFbQDCaINI2_-121">
          <mxGeometry y="120" width="270" height="30" as="geometry" />
        </mxCell>
        <mxCell id="CHl3-RWUKFbQDCaINI2_-132" value="" style="shape=partialRectangle;overflow=hidden;connectable=0;fillColor=none;top=0;left=0;bottom=0;right=0;" vertex="1" parent="CHl3-RWUKFbQDCaINI2_-131">
          <mxGeometry width="30" height="30" as="geometry" />
        </mxCell>
        <mxCell id="CHl3-RWUKFbQDCaINI2_-133" value="gender      ENUM (&#39;M&#39;,&#39;F&#39;)  NOT NULL" style="shape=partialRectangle;overflow=hidden;connectable=0;fillColor=none;top=0;left=0;bottom=0;right=0;align=left;spacingLeft=6;" vertex="1" parent="CHl3-RWUKFbQDCaINI2_-131">
          <mxGeometry x="30" width="240" height="30" as="geometry" />
        </mxCell>
        <mxCell id="CHl3-RWUKFbQDCaINI2_-134" value="" style="shape=partialRectangle;collapsible=0;dropTarget=0;pointerEvents=0;fillColor=none;points=[[0,0.5],[1,0.5]];portConstraint=eastwest;top=0;left=0;right=0;bottom=0;" vertex="1" parent="CHl3-RWUKFbQDCaINI2_-121">
          <mxGeometry y="150" width="270" height="30" as="geometry" />
        </mxCell>
        <mxCell id="CHl3-RWUKFbQDCaINI2_-135" value="" style="shape=partialRectangle;overflow=hidden;connectable=0;fillColor=none;top=0;left=0;bottom=0;right=0;" vertex="1" parent="CHl3-RWUKFbQDCaINI2_-134">
          <mxGeometry width="30" height="30" as="geometry" />
        </mxCell>
        <mxCell id="CHl3-RWUKFbQDCaINI2_-136" value="emp_level	INT				NOT NULL" style="shape=partialRectangle;overflow=hidden;connectable=0;fillColor=none;top=0;left=0;bottom=0;right=0;align=left;spacingLeft=6;" vertex="1" parent="CHl3-RWUKFbQDCaINI2_-134">
          <mxGeometry x="30" width="240" height="30" as="geometry" />
        </mxCell>
        <mxCell id="CHl3-RWUKFbQDCaINI2_-137" value="" style="shape=partialRectangle;collapsible=0;dropTarget=0;pointerEvents=0;fillColor=none;points=[[0,0.5],[1,0.5]];portConstraint=eastwest;top=0;left=0;right=0;bottom=0;" vertex="1" parent="CHl3-RWUKFbQDCaINI2_-121">
          <mxGeometry y="180" width="270" height="30" as="geometry" />
        </mxCell>
        <mxCell id="CHl3-RWUKFbQDCaINI2_-138" value="" style="shape=partialRectangle;overflow=hidden;connectable=0;fillColor=none;top=0;left=0;bottom=0;right=0;" vertex="1" parent="CHl3-RWUKFbQDCaINI2_-137">
          <mxGeometry width="30" height="30" as="geometry" />
        </mxCell>
        <mxCell id="CHl3-RWUKFbQDCaINI2_-139" value="hire_timestamp	TIMESTAMP	NOT NULL" style="shape=partialRectangle;overflow=hidden;connectable=0;fillColor=none;top=0;left=0;bottom=0;right=0;align=left;spacingLeft=6;" vertex="1" parent="CHl3-RWUKFbQDCaINI2_-137">
          <mxGeometry x="30" width="240" height="30" as="geometry" />
        </mxCell>
        <mxCell id="CHl3-RWUKFbQDCaINI2_-156" value="" style="edgeStyle=entityRelationEdgeStyle;fontSize=12;html=1;endArrow=ERzeroToMany;startArrow=ERzeroToOne;exitX=1;exitY=0.5;exitDx=0;exitDy=0;entryX=0;entryY=0.5;entryDx=0;entryDy=0;" edge="1" parent="1" source="CHl3-RWUKFbQDCaINI2_-128" target="CHl3-RWUKFbQDCaINI2_-47">
          <mxGeometry width="100" height="100" relative="1" as="geometry">
            <mxPoint x="326" y="317" as="sourcePoint" />
            <mxPoint x="501" y="317" as="targetPoint" />
          </mxGeometry>
        </mxCell>
        <mxCell id="CHl3-RWUKFbQDCaINI2_-158" value="1" style="text;html=1;align=center;verticalAlign=middle;resizable=0;points=[];autosize=1;strokeColor=none;" vertex="1" parent="1">
          <mxGeometry x="336" y="318" width="16" height="18" as="geometry" />
        </mxCell>
        <mxCell id="CHl3-RWUKFbQDCaINI2_-159" value="n" style="text;html=1;align=center;verticalAlign=middle;resizable=0;points=[];autosize=1;strokeColor=none;" vertex="1" parent="1">
          <mxGeometry x="459" y="318" width="16" height="18" as="geometry" />
        </mxCell>
      </root>
    </mxGraphModel>
  </diagram>
</mxfile>
